<?xml version="1.0" standalone="no"?>
<!DOCTYPE svg PUBLIC "-//W3C//DTD SVG 20010904//EN"
 "http://www.w3.org/TR/2001/REC-SVG-20010904/DTD/svg10.dtd">
<svg version="1.0" xmlns="http://www.w3.org/2000/svg"
 width="107.000000pt" height="107.000000pt" viewBox="0 0 107.000000 107.000000"
 preserveAspectRatio="xMidYMid meet">
<metadata>
Created by potrace 1.14, written by Peter Selinger 2001-2017
</metadata>
<g transform="translate(0.000000,107.000000) scale(0.100000,-0.100000)"
fill="#000000" stroke="none">
<path d="M392 1062 c-33 -10 -90 -69 -97 -102 -5 -25 -35 -64 -35 -46 0 10
-63 -25 -78 -43 -26 -32 -52 -97 -52 -131 0 -33 9 -71 95 -395 30 -111 38
-160 39 -237 1 -53 5 -100 8 -103 19 -19 28 14 28 98 0 95 0 94 -94 452 -39
146 -45 201 -27 248 17 43 59 77 97 77 31 0 34 3 45 44 24 96 111 136 177 81
34 -28 48 -31 55 -12 9 25 67 46 101 36 41 -11 83 -62 91 -110 6 -35 10 -39
36 -39 57 0 106 -54 116 -126 3 -20 -20 -120 -63 -271 -63 -223 -67 -245 -69
-348 -2 -121 1 -135 21 -135 11 0 14 24 14 118 0 79 5 136 16 172 9 29 17 61
19 69 2 9 25 88 50 175 54 192 57 243 17 307 -28 43 -48 58 -103 78 -18 7 -28
19 -33 42 -8 41 -67 96 -112 105 -36 7 -114 -19 -114 -38 0 -5 -13 0 -28 10
-32 23 -86 34 -120 24z"/>
<path d="M396 973 c-50 -26 -63 -113 -23 -157 35 -40 69 -43 106 -9 79 71 8
214 -83 166z m62 -39 c37 -25 26 -100 -16 -111 -49 -12 -79 68 -41 113 15 18
29 18 57 -2z"/>
<path d="M597 973 c-79 -41 -55 -180 32 -188 72 -6 112 99 63 164 -24 33 -62
42 -95 24z m69 -48 c11 -17 14 -35 10 -60 -14 -74 -100 -48 -90 28 7 56 52 74
80 32z"/>
<path d="M252 826 c-52 -28 -70 -102 -37 -152 35 -53 99 -51 134 6 46 76 -27
184 -97 146z m62 -48 c31 -43 11 -108 -32 -108 -24 0 -52 35 -52 65 0 29 28
65 50 65 10 0 26 -10 34 -22z"/>
<path d="M754 825 c-78 -33 -66 -176 16 -188 75 -12 124 85 77 153 -28 41 -54
51 -93 35z m60 -47 c31 -43 11 -108 -32 -108 -43 0 -59 59 -31 112 13 25 45
23 63 -4z"/>
<path d="M513 732 c-31 -5 -67 -44 -109 -119 -77 -137 -30 -213 132 -213 80 0
128 19 148 59 23 43 20 71 -15 137 -59 112 -98 146 -156 136z m54 -47 c12 -8
37 -44 57 -79 66 -118 43 -168 -77 -172 -147 -4 -178 42 -111 165 53 96 86
118 131 86z"/>
</g>
</svg>
